<svg width="396" height="202" viewBox="0 0 396 202" fill="none" xmlns="http://www.w3.org/2000/svg">
  <path d="M19 140C17.2416 142.107 -4.99267 168.405 4.44445 172C7.09753 173.011 10.2331 171.24 12.6667 169.778C18.6226 166.199 24.07 161.773 29.2222 157.111C46.6866 141.308 69.2226 116.482 83.6667 98.7778C100.401 78.2665 115.069 57.5539 128.778 35C151.503 -2.38858 131.034 29.2018 145.556 2.88889C147.509 -0.651403 144.632 10.9364 143.778 14.8889C136.473 48.7037 129.537 82.4536 125.333 116.833C124.2 126.105 119.778 155.893 124.278 168.333C129.353 182.364 142.065 171.425 148.833 166.667C170.207 151.64 191.833 128.768 208.833 109.944C229.033 87.5783 244.068 69.1627 260.333 44.5C264.902 37.5724 277.925 16.883 271.667 22.3333C269.497 24.2234 268.47 27.1299 267.111 29.6667C263.17 37.0258 259.433 44.4947 255.778 52C243.95 76.2862 233.38 98.9859 223.444 124.222C218.861 135.864 214.143 147.505 210.778 159.556C209.584 163.831 202.085 190.752 211.111 197.889C220.146 205.032 245.118 192.433 249.222 190C266.048 180.024 291.373 158.337 300.889 140.889C310.763 122.783 312.486 100.889 298.778 83.7778C283.379 64.5572 249.329 52.5121 227.222 48.3333C201.64 43.4977 160.204 43.7912 134.333 49.8889C128.108 51.3563 94.7477 61.543 96.6667 78.1111C98.7746 96.3107 136.405 109.513 145.111 112.111C161.977 117.145 179.52 119.831 197 121.889C218.636 124.436 260.663 127.406 284.389 119.333C288.352 117.985 295.4 113.059 292.667 109.889C286.512 102.751 275.79 101.144 266.667 98.7778C228.654 88.9167 180.919 85.4716 142.611 84.6111C129.849 84.3244 66.1379 81.8243 46.3333 95.3333C42.5374 97.9226 42.4555 106.057 45.8889 109.111C54.9713 117.19 67.4269 120.672 79 124.389C119.098 137.267 161.824 142 203.444 145.889C246.881 149.948 277.165 150.66 319.556 150.944C344.412 151.111 369.212 150.305 394 149" id="signature" stroke="black" stroke-width="3" stroke-linecap="round"/>
</svg>
